            @@                       @@     @@
           @@@                      @@@    @@@
          @@@@@@  @@@@@    @@@@@   @@@@@@ @@@        @@@@@    @@@@@
          @@@@@  @@@@@@@  @@@ @@@  @@@@@  @@@       @@@ @@@  @@@@@@@
           @@@   @@@  !@ @@@   @@@  @@@   @@@@@@   @@@   @@@ @@@  !@
           @@@   @@@     @@@   @@@  @@@   @@@@@@@  @@@   @@@ @@@
           @!@   @!@     @!@   @!@  @!@   @!@  @!@ @!@@ @!@  @!@
           !!@   !!@     !!@   !!@  !!@   !!@  !!@ !!@@      !!@
            :!:   :!:     :!: :!:    :!:  :!:  :!:  :!:! :!   :!:
             ::    ::      ::::       ::   ::  :::   ::::      ::
                                               :::
           ~The Three Amigos Outrageous 2003 DVDRIP [MP4]- trother~   
                                           :::
                                          :::



*******************************************************************************
IMDb:                http://www.imdb.com/title/tt0301934/    
*******************************************************************************



            RELEASE.: The Three Amigos Outrageous 2003 DVDRIP
            SOURCE..: DVD9 PAL
            DATE....: 30/10/2011 
            GENRE...: Comedy



General
===============
Complete name                    : The Three Amigos Outrageous 2003 DVDRIP [MP4]- trother.m4v
Format                           : MPEG-4
Format profile                   : Base Media / Version 2
Codec ID                         : mp42
File size                        : 1.01 GiB
Duration                         : 1h 11mn
Overall bit rate                 : 2 027 Kbps



Video
===============
ID                               : 1
Format                           : AVC
Format/Info                      : Advanced Video Codec
Format profile                   : Main@L3.0
Format settings, CABAC           : Yes
Format settings, ReFrames        : 4 frames
Codec ID                         : avc1
Codec ID/Info                    : Advanced Video Coding
Duration                         : 1h 11mn
Bit rate mode                    : Variable
Bit rate                         : 1 863 Kbps
Width                            : 720 pixels
Height                           : 480 pixels
Display aspect ratio             : 16:9
Frame rate mode                  : Variable
Frame rate                       : 24.988 fps
Minimum frame rate               : 5.000 fps
Maximum frame rate               : 25.000 fps
Standard                         : NTSC
Color space                      : YUV
Chroma subsampling               : 4:2:0
Bit depth                        : 8 bits
Scan type                        : Progressive
Bits/(Pixel*Frame)               : 0.216
Stream size                      : 951 MiB (92%)



Audio
===============
ID                               : 2
Format                           : AAC
Format/Info                      : Advanced Audio Codec
Format profile                   : LC
Codec ID                         : 40
Duration                         : 1h 11mn
Bit rate mode                    : Variable
Bit rate                         : 160 Kbps
Maximum bit rate                 : 242 Kbps
Channel(s)                       : 2 channels
Channel positions                : Front: L R
Sampling rate                    : 48.0 KHz
Compression mode                 : Lossy
Stream size                      : 81.7 MiB (8%)



THE THREE AMIGOS (Carlos Mencia, Pablo Francisco, Freddy Soto) brings you all the hilarious and outrageous comedy from a red-hot trio of Latino headliners on their sold-out national tour! With the biting social commentary of Carlos Mencia (29 PALMS, COMIC RELIEF VI), the off-the-wall sound effects of Pablo Francisco (MAD TV, COMEDY CENTRAL PRESENTS: PABLO FRANCISCO), and the hysterical family humor of Freddy Soto (SPANGLISH), it\'s all-out stand-up hilarity like you\'ve never seen before! Directed by C.B. Harding (BLUE COLLAR COMEDY TOUR, THE OSBOURNES FAMILY CHRISTMAS SPECIAL) -- you\'ll laugh till it hurts as these three fresh and original comics do what they do best -- live on stage! 


Enjoy and please comment!